<svg xmlns="http://www.w3.org/2000/svg" width="22" height="22" viewBox="0 0 22 22">
    <defs>
        <style>
            .cls-1{fill:none}.cls-2{fill:#3b8cf6}
        </style>
    </defs>
    <g id="ambulance" transform="translate(-302 -381)">
        <path id="Rectangle_7" d="M0 0h22v22H0z" class="cls-1" data-name="Rectangle 7" transform="translate(302 381)"/>
        <g id="cog" transform="translate(304.6 383.6)">
            <path id="Path_349" d="M8.927 16.8H7.872a1.548 1.548 0 0 1-1.547-1.546V14.9a6.782 6.782 0 0 1-1.053-.437l-.253.253a1.547 1.547 0 0 1-2.187 0l-.745-.745a1.546 1.546 0 0 1 0-2.187l.253-.253a6.782 6.782 0 0 1-.44-1.058h-.353A1.548 1.548 0 0 1 0 8.927V7.872a1.548 1.548 0 0 1 1.547-1.546H1.9a6.784 6.784 0 0 1 .44-1.053l-.252-.253a1.547 1.547 0 0 1 0-2.187l.745-.745a1.546 1.546 0 0 1 2.187 0l.253.253A6.788 6.788 0 0 1 6.326 1.9v-.353A1.548 1.548 0 0 1 7.872 0h1.055a1.548 1.548 0 0 1 1.546 1.546V1.9a6.782 6.782 0 0 1 1.053.437l.253-.253a1.547 1.547 0 0 1 2.187 0l.745.745a1.546 1.546 0 0 1 0 2.187l-.253.253a6.782 6.782 0 0 1 .442 1.057h.357A1.548 1.548 0 0 1 16.8 7.872v1.055a1.548 1.548 0 0 1-1.547 1.546H14.9a6.784 6.784 0 0 1-.437 1.053l.253.253a1.547 1.547 0 0 1 0 2.187l-.745.745a1.546 1.546 0 0 1-2.187 0l-.253-.253a6.788 6.788 0 0 1-1.053.437v.357A1.548 1.548 0 0 1 8.927 16.8zm-3.49-3.375a5.8 5.8 0 0 0 1.5.624.492.492 0 0 1 .369.477v.727a.563.563 0 0 0 .562.562h1.059a.563.563 0 0 0 .562-.562v-.727a.492.492 0 0 1 .369-.477 5.8 5.8 0 0 0 1.5-.624.492.492 0 0 1 .6.076l.515.515a.562.562 0 0 0 .795 0l.746-.746a.562.562 0 0 0 0-.795l-.514-.515a.492.492 0 0 1-.076-.6 5.8 5.8 0 0 0 .624-1.5.492.492 0 0 1 .477-.369h.727a.563.563 0 0 0 .562-.562V7.872a.563.563 0 0 0-.562-.562h-.727a.492.492 0 0 1-.477-.369 5.8 5.8 0 0 0-.624-1.5.492.492 0 0 1 .076-.6l.515-.515a.562.562 0 0 0 0-.795l-.746-.746a.562.562 0 0 0-.795 0l-.515.515a.492.492 0 0 1-.6.076 5.8 5.8 0 0 0-1.5-.624.492.492 0 0 1-.369-.477v-.728a.563.563 0 0 0-.563-.563H7.873a.563.563 0 0 0-.562.562v.727a.492.492 0 0 1-.369.477 5.8 5.8 0 0 0-1.5.624.492.492 0 0 1-.6-.076l-.515-.515a.562.562 0 0 0-.795 0l-.746.746a.562.562 0 0 0 0 .795l.515.515a.492.492 0 0 1 .076.6 5.8 5.8 0 0 0-.624 1.5.492.492 0 0 1-.477.369h-.729a.563.563 0 0 0-.562.562v1.057a.563.563 0 0 0 .562.562h.727a.492.492 0 0 1 .477.369 5.8 5.8 0 0 0 .624 1.5.492.492 0 0 1-.076.6l-.515.515a.562.562 0 0 0 0 .795l.746.746a.562.562 0 0 0 .795 0l.515-.515a.494.494 0 0 1 .6-.076z" class="cls-2" data-name="Path 349"/>
            <path id="Path_350" d="M148.255 151.91a3.655 3.655 0 1 1 3.655-3.655 3.659 3.659 0 0 1-3.655 3.655zm0-6.326a2.671 2.671 0 1 0 2.671 2.671 2.674 2.674 0 0 0-2.671-2.671z" class="cls-2" data-name="Path 350" transform="translate(-139.856 -139.856)"/>
        </g>
    </g>
</svg>
