<svg xmlns="http://www.w3.org/2000/svg" width="22" height="22" viewBox="0 0 22 22">
    <defs>
        <style>
            .cls-1{fill:none}.cls-2{fill:#3b8cf6}
        </style>
    </defs>
    <g id="driver_big" transform="translate(-509 -316)">
        <path id="Rectangle_18" d="M0 0h22v22H0z" class="cls-1" data-name="Rectangle 18" transform="translate(509 316)"/>
        <g id="entrepreneur" transform="translate(513.185 317.765)">
            <g id="Group_54" data-name="Group 54">
                <path id="Path_29" d="M5.493 5.566a1.048 1.048 0 0 0 .262.573c.256 1.7 1.678 3.278 2.978 3.278 1.515 0 2.895-1.708 3.163-3.275a1.048 1.048 0 0 0 .267-.576c.087-.318.2-.872 0-1.131-.01-.013-.022-.025-.031-.038A3.307 3.307 0 0 0 11.72 1.4a3.046 3.046 0 0 0-1.532-.938L9.715.3A7.544 7.544 0 0 0 8.423 0a.309.309 0 0 0-.107.01.536.536 0 0 1-.193.022 1.339 1.339 0 0 0-.517.088 3.707 3.707 0 0 0-2.037 2.042 4.621 4.621 0 0 0 .018 2.183.421.421 0 0 0-.1.092c-.187.257-.081.81.006 1.129zm.594-3.2c0-.007.005-.015.008-.023A3.2 3.2 0 0 1 7.8.638a.912.912 0 0 1 .247-.057 1.1 1.1 0 0 0 .362-.024 7.734 7.734 0 0 1 1.134.267l.477.163a2.531 2.531 0 0 1 1.262.755.171.171 0 0 0 .018.021 2.965 2.965 0 0 1 .231 2.712.28.28 0 0 0 .192.356 2.556 2.556 0 0 1-.1.6c0 .01-.005.021-.007.031a.476.476 0 0 1-.145.315.271.271 0 0 0-.109.183c-.185 1.313-1.4 2.9-2.631 2.9-1.035 0-2.268-1.462-2.442-2.9a.276.276 0 0 0-.109-.187.492.492 0 0 1-.146-.316c0-.01 0-.022-.006-.032a2.63 2.63 0 0 1-.1-.572.281.281 0 0 0 .154-.053.277.277 0 0 0 .1-.27 4.772 4.772 0 0 1-.095-2.167z" class="cls-2" data-name="Path 29" transform="translate(-1.706)"/>
                <path id="Path_30" d="M14.79 10.273a2.4 2.4 0 0 0-1.041-.7l-.155-.049a11.575 11.575 0 0 0-1.269-.5 5.656 5.656 0 0 1-.355-.139c-.441-.219-.809-.465-.886-.7l.331 2.657-2.4 6.174-2.272-6.049.046-2.787c-.205.643-2.667 1.391-2.667 1.391a2.408 2.408 0 0 0-1.041.7C2 11.878 1.872 15.449 1.872 15.449c.015.816.367.9.367.9a22 22 0 0 0 6.393 1.307c.211 0 .407-.006.6-.019l.005.021a22 22 0 0 0 6.393-1.307s.353-.086.367-.9c.003-.001-.125-3.574-1.207-5.178z" class="cls-2" data-name="Path 30" transform="translate(-1.872 .388)"/>
                <path id="Path_31" d="M10.587 8.291c.028-.036.057-.068.084-.106a.288.288 0 0 1-.006-.036c-.027.051-.053.093-.078.142z" class="cls-2" data-name="Path 31" transform="translate(-1.459 .386)"/>
                <path id="Path_32" d="M6.58 8.176l-.006-.025-.005.029c0-.005.006-.01.007-.016a.073.073 0 0 1 .004.012z" class="cls-2" data-name="Path 32" transform="translate(-1.65 .386)"/>
                <path id="Path_33" d="M7.691 9.253l1.066 1.631 1.066-1.631a2.636 2.636 0 0 1-2.132 0z" class="cls-2" data-name="Path 33" transform="translate(-1.596 .438)"/>
                <path id="Path_34" d="M8.746 16.294l.815-4.952-.815-.532-.816.532z" class="cls-2" data-name="Path 34" transform="translate(-1.585 .512)"/>
            </g>
        </g>
    </g>
</svg>
