<svg xmlns="http://www.w3.org/2000/svg" width="22" height="22" viewBox="0 0 22 22">
    <defs>
        <style>
            .cls-1{fill:none}.cls-2{fill:#3b8cf6}
        </style>
    </defs>
    <g id="users" transform="translate(-302 -381)">
        <path id="Rectangle_7" d="M0 0h22v22H0z" class="cls-1" data-name="Rectangle 7" transform="translate(302 381)"/>
        <g id="tie" transform="translate(304.33 384.237)">
            <path id="Path_359" d="M10.981 9.947A5.486 5.486 0 0 0 12.2 7.892a1.3 1.3 0 0 0 .716-.9c.1-.384.321-1.285-.173-1.562v-.643c.033-1.141-.1-2.526-1.408-3.092a2.121 2.121 0 0 1-.129-.563L11.09 0l-.805.759a6.113 6.113 0 0 1-2.253.565l-.37.058c-2.379.374-2.346 1.581-2.31 2.861 0 .167.009.342.009.53l.017.582c-.356.235-.438.793-.237 1.616a1.18 1.18 0 0 0 .705.851 6.241 6.241 0 0 0 1.273 2.125 6.442 6.442 0 0 0-5.143 6.025v.264h14.147v-.264a6.442 6.442 0 0 0-5.142-6.025zm1.709 5.762v-1.383a.264.264 0 1 0-.529 0v1.383H5.94v-1.383a.264.264 0 1 0-.529 0v1.383h-2.9a5.684 5.684 0 0 1 3.18-4.655l3.163 3.592a.268.268 0 0 0 .2.089.261.261 0 0 0 .2-.092l3.1-3.619a5.694 5.694 0 0 1 3.237 4.683h-2.9zm-4.2-4.941l-.35.3.573.493L8.29 13.2l-2.1-2.385a7.157 7.157 0 0 1 1.434-.443 2.554 2.554 0 0 0 .861.396zm1.99-.393a7.058 7.058 0 0 1 1.378.418l-2.1 2.456-.438-1.689.573-.493-.333-.286a2.6 2.6 0 0 0 .915-.406zM6.282 7.409c-.2.043-.519-.2-.612-.571s-.158-.989.049-1.046a.251.251 0 0 1 .188.029v-1.05c0-1.652-.373-2.622 2.206-2.9l-.023-.006a6.716 6.716 0 0 0 2.569-.709 2.55 2.55 0 0 0 .232.893c1.19.478 1.339 1.58 1.305 2.722v1.05a.251.251 0 0 1 .187-.031c.206.057.1.693 0 1.07s-.358.586-.56.548a5.372 5.372 0 0 1-1.511 2.4 2.542 2.542 0 0 1-.321.223 2 2 0 0 1-.555.217 1.729 1.729 0 0 1-.386.047 1.768 1.768 0 0 1-.391-.047 2.007 2.007 0 0 1-.559-.215 2.7 2.7 0 0 1-.322-.223 5.238 5.238 0 0 1-1.496-2.401z" class="cls-2" data-name="Path 359"/>
        </g>
    </g>
</svg>
