<svg xmlns="http://www.w3.org/2000/svg" width="15.547" height="19.009" viewBox="0 0 15.547 19.009">
    <defs>
        <style>
            .cls-1{fill:#c7c7c7}
        </style>
    </defs>
    <g id="alarm-bell-outline" transform="translate(-8.801)">
        <path id="Path_12" d="M23.94 11.743a9.856 9.856 0 0 1-.469-2.594c0-3.763-2.284-7-5.4-7.8a1.5 1.5 0 0 0-2.987 0c-3.119.8-5.4 4.033-5.4 7.8a9.848 9.848 0 0 1-.469 2.594c-.367 1.333-.713 2.592.044 3.645.665.925 2.061 1.441 4.484 1.644 0 0 .25.029.85.055a1.989 1.989 0 0 0 3.976 0c.605-.026.85-.056.85-.056 2.423-.2 3.819-.719 4.484-1.644.751-1.052.404-2.311.037-3.644z" class="cls-1" data-name="Path 12"/>
    </g>
</svg>
