<svg xmlns="http://www.w3.org/2000/svg" width="24" height="24" viewBox="0 0 24 24">
    <defs>
        <style>
            .cls-1{fill:none}.cls-2{fill:#707070}
        </style>
    </defs>
    <g id="Group_65" data-name="Group 65" transform="translate(-302.442 -383.442)">
        <path id="Rectangle_7" d="M0 0h24v24H0z" class="cls-1" data-name="Rectangle 7" transform="translate(302.442 383.442)"/>
        <path id="post" d="M8.143 0H8.01a1 1 0 0 0-1 .98v.944l-2.849-.83a.311.311 0 0 0-.387.216L.07 14.074a.318.318 0 0 0 .217.392l12.765 3.706a.317.317 0 0 0 .392-.214l.4-1.359h3.2a.326.326 0 0 0 .324-.32V2.987a.309.309 0 0 0-.324-.3H9.6l-.459-.154V.98a.994.994 0 0 0-1-.98zm-.5.98A.364.364 0 0 1 8.01.632h.134A.361.361 0 0 1 8.51.98v1.37l-.87-.243zm6.383 14.987l2.707-9.3v9.3zM16.73 3.32v1.418L11.779 3.32zm-.268 2l-3.533 12.157-12.16-3.53L4.305 1.789l4.2 1.219v2.157a.356.356 0 0 1-.711 0V3.852a.316.316 0 1 0-.632 0v1.313a.988.988 0 0 0 1.976 0V3.192zm0 0" class="cls-2" transform="translate(305.344 386.401)"/>
    </g>
</svg>
