<svg xmlns="http://www.w3.org/2000/svg" width="28.254" height="36.095" viewBox="0 0 28.254 36.095">
    <defs>
        <style>
            .cls-1{fill:#fff}
        </style>
    </defs>
    <g id="entrepreneur" transform="translate(-1.872)">
        <g id="Group_54" data-name="Group 54" transform="translate(1.872)">
            <path id="Path_29" d="M5.6 11.132a2.1 2.1 0 0 0 .524 1.146c.511 3.4 3.356 6.557 5.955 6.557 3.029 0 5.79-3.417 6.326-6.55a2.1 2.1 0 0 0 .534-1.152c.174-.637.394-1.745 0-2.262-.021-.025-.044-.05-.063-.075.367-1.339.83-4.1-.827-5.987A6.092 6.092 0 0 0 14.995.924L14.048.6a15.087 15.087 0 0 0-2.585-.6.617.617 0 0 0-.214.019 1.072 1.072 0 0 1-.385.044 2.677 2.677 0 0 0-1.035.178 7.414 7.414 0 0 0-4.072 4.083c-.084.23-.45 1.429.036 4.365a.843.843 0 0 0-.193.184c-.392.516-.17 1.622 0 2.259zm1.192-6.406l.017-.046a6.39 6.39 0 0 1 3.419-3.4 1.823 1.823 0 0 1 .484-.113 2.2 2.2 0 0 0 .725-.048 15.468 15.468 0 0 1 2.269.534l.953.327a5.062 5.062 0 0 1 2.524 1.51.342.342 0 0 0 .036.042c1.533 1.73.742 4.59.463 5.423a.56.56 0 0 0 .383.712 5.113 5.113 0 0 1-.195 1.2l-.015.063a.952.952 0 0 1-.289.631.543.543 0 0 0-.218.367c-.371 2.627-2.8 5.8-5.262 5.8-2.07 0-4.535-2.924-4.885-5.792a.552.552 0 0 0-.218-.375.984.984 0 0 1-.291-.633c0-.021-.008-.044-.013-.065a5.26 5.26 0 0 1-.193-1.143.563.563 0 0 0 .3-.115.553.553 0 0 0 .205-.54c-.612-3.189-.199-4.339-.199-4.339z" class="cls-1" data-name="Path 29" transform="translate(1.971)"/>
            <path id="Path_30" d="M27.709 12.365a4.8 4.8 0 0 0-2.082-1.4l-.31-.1a23.15 23.15 0 0 0-2.539-1 9.9 9.9 0 0 1-.71-.279c-.882-.438-1.617-.93-1.772-1.393l.662 5.314-4.806 12.344-4.537-12.1.092-5.574c-.411 1.286-5.333 2.782-5.333 2.782a4.816 4.816 0 0 0-2.082 1.4c-2.164 3.218-2.42 10.359-2.42 10.359.029 1.632.733 1.8.733 1.8 4.975 2.218 12.786 2.614 12.786 2.614.421.008.815-.013 1.2-.038l.01.042s7.811-.4 12.786-2.614c0 0 .706-.172.733-1.8.006-.002-.248-7.148-2.411-10.357z" class="cls-1" data-name="Path 30" transform="translate(-1.872 8.955)"/>
            <path id="Path_31" d="M10.587 8.433c.057-.071.113-.136.168-.212a.576.576 0 0 1-.013-.071c-.052.101-.105.184-.155.283z" class="cls-1" data-name="Path 31" transform="translate(7.669 8.922)"/>
            <path id="Path_32" d="M6.591 8.2l-.013-.05-.01.059c0-.01.013-.021.015-.031a.147.147 0 0 1 .008.022z" class="cls-1" data-name="Path 32" transform="translate(3.269 8.924)"/>
            <path id="Path_33" d="M7.691 9.253l2.132 3.262 2.132-3.262a5.271 5.271 0 0 1-4.264 0z" class="cls-1" data-name="Path 33" transform="translate(4.498 10.13)"/>
            <path id="Path_34" d="M9.562 21.778l1.63-9.9-1.63-1.068-1.632 1.064z" class="cls-1" data-name="Path 34" transform="translate(4.76 11.834)"/>
        </g>
    </g>
</svg>
