<svg xmlns="http://www.w3.org/2000/svg" width="212" height="212" viewBox="0 0 212 212">
    <defs>
        <style>
            .cls-1{fill:url(#linear-gradient)}.cls-2{fill:#fff}.cls-3{filter:url(#Path_2153)}.cls-4{filter:url(#Path_2152)}.cls-5{filter:url(#Path_2150)}.cls-6{filter:url(#Path_2149)}.cls-7{filter:url(#Path_2148)}.cls-8{filter:url(#Path_2147)}.cls-9{filter:url(#Path_2146)}.cls-10{filter:url(#Path_2145)}.cls-11{filter:url(#Ellipse_55)}
        </style>
        <linearGradient id="linear-gradient" x1=".125" x2=".899" y1=".808" y2=".143" gradientUnits="objectBoundingBox">
            <stop offset="0" stop-color="#dfa541"/>
            <stop offset="1" stop-color="#e1a133"/>
        </linearGradient>
        <filter id="Ellipse_55" width="212" height="212" x="0" y="0" filterUnits="userSpaceOnUse">
            <feOffset dy="5"/>
            <feGaussianBlur result="blur" stdDeviation="10"/>
            <feFlood flood-color="#cfa75f" flood-opacity=".039"/>
            <feComposite in2="blur" operator="in"/>
            <feComposite in="SourceGraphic"/>
        </filter>
        <filter id="Path_2145" width="26.542" height="63.741" x="70.666" y="64.037" filterUnits="userSpaceOnUse">
            <feOffset dy="2"/>
            <feGaussianBlur result="blur-2" stdDeviation=".5"/>
            <feFlood flood-opacity=".161"/>
            <feComposite in2="blur-2" operator="in"/>
            <feComposite in="SourceGraphic"/>
        </filter>
        <filter id="Path_2146" width="27.205" height="51.892" x="112.584" y="64.037" filterUnits="userSpaceOnUse">
            <feOffset dy="2"/>
            <feGaussianBlur result="blur-3" stdDeviation=".5"/>
            <feFlood flood-opacity=".278"/>
            <feComposite in2="blur-3" operator="in"/>
            <feComposite in="SourceGraphic"/>
        </filter>
        <filter id="Path_2147" width="82.389" height="26.181" x="57.753" y="108.354" filterUnits="userSpaceOnUse">
            <feOffset dy="2"/>
            <feGaussianBlur result="blur-4" stdDeviation=".5"/>
            <feFlood flood-opacity=".161"/>
            <feComposite in2="blur-4" operator="in"/>
            <feComposite in="SourceGraphic"/>
        </filter>
        <filter id="Path_2148" width="21.055" height="21.555" x="133.883" y="97.822" filterUnits="userSpaceOnUse">
            <feOffset dy="2"/>
            <feGaussianBlur result="blur-5" stdDeviation=".5"/>
            <feFlood flood-opacity=".161"/>
            <feComposite in2="blur-5" operator="in"/>
            <feComposite in="SourceGraphic"/>
        </filter>
        <filter id="Path_2149" width="45.993" height="27.688" x="89.231" y="117.293" filterUnits="userSpaceOnUse">
            <feOffset dy="2"/>
            <feGaussianBlur result="blur-6" stdDeviation=".5"/>
            <feFlood flood-opacity=".161"/>
            <feComposite in2="blur-6" operator="in"/>
            <feComposite in="SourceGraphic"/>
        </filter>
        <filter id="Path_2150" width="28.775" height="17.63" x="92.644" y="105.872" filterUnits="userSpaceOnUse">
            <feOffset dy=".5"/>
            <feGaussianBlur result="blur-7"/>
            <feFlood flood-opacity=".161"/>
            <feComposite in2="blur-7" operator="in"/>
            <feComposite in="SourceGraphic"/>
        </filter>
        <filter id="Path_2152" width="25.215" height="18.841" x="94.732" y="77.08" filterUnits="userSpaceOnUse">
            <feOffset dy="1"/>
            <feGaussianBlur result="blur-8"/>
            <feFlood flood-opacity=".161"/>
            <feComposite in2="blur-8" operator="in"/>
            <feComposite in="SourceGraphic"/>
        </filter>
        <filter id="Path_2153" width="36.674" height="14.187" x="89.259" y="94.65" filterUnits="userSpaceOnUse">
            <feOffset dy="1"/>
            <feGaussianBlur result="blur-9"/>
            <feFlood flood-opacity=".161"/>
            <feComposite in2="blur-9" operator="in"/>
            <feComposite in="SourceGraphic"/>
        </filter>
    </defs>
    <g id="Group_184" data-name="Group 184" transform="translate(30.217 25)">
        <g class="cls-11" transform="translate(-30.22 -25)">
            <circle id="Ellipse_55-2" cx="76" cy="76" r="76" class="cls-1" data-name="Ellipse 55" transform="translate(30 25)"/>
        </g>
        <g id="Group_183" data-name="Group 183" transform="translate(29.036 39.037)">
            <g id="Group_176" data-name="Group 176">
                <g id="Group_172" class="cls-10" data-name="Group 172" transform="translate(-59.257 -64.04)">
                    <path id="Path_2145-2" d="M731.467 41.061c-4.689 1.958-9.056 3.735-11.375 4.564a81.619 81.619 0 0 0 3.1 21.22 77.49 77.49 0 0 0 12.236 25.215c-1.213.282-2.415.553-3.6.8A81.111 81.111 0 0 1 719.9 67.635a80.373 80.373 0 0 1-3.165-23.319l.062-1.207 1.168-.333c1.456-.418 6.409-2.42 12.2-4.835-.006-.09-.006-.186-.006-.276a5.046 5.046 0 0 1 10.083-.293c.006.1.011.2.011.293a5.048 5.048 0 0 1-8.779 3.4z" class="cls-2" data-name="Path 2145" transform="translate(-644.54 31.42)"/>
                </g>
                <g class="cls-9" transform="translate(-59.25 -64.04)">
                    <path id="Path_2146-2" d="M815.2 43.7l-.09 1.247c-1.027 14.269-3.837 25.457-7.273 34.124q-2.1.965-4.5 1.941c3.808-8.5 7.081-19.934 8.3-35.071-2.15-.846-6.923-2.725-12.171-4.835a4.739 4.739 0 0 1-3.554 1.6A4.938 4.938 0 0 1 791 37.664v-.113a4.768 4.768 0 0 1 1.05-3.126.251.251 0 0 1 .034-.039 4.9 4.9 0 0 1 3.775-1.766 4.988 4.988 0 0 1 4.976 5.044c0 .113-.006.226-.011.333 6.968 2.8 13.1 5.2 13.219 5.253z" class="cls-2" data-name="Path 2146" transform="translate(-676.92 31.42)"/>
                </g>
                <g id="Group_173" class="cls-8" data-name="Group 173" transform="translate(-59.25 -64.033)">
                    <path id="Path_2147-2" d="M703.46 133.848c-3.039 0-5.549-.37-7.135-1.276-2.177-1.244-2.561-2.844-2.5-3.967.288-5.4 12.908-11.328 16.768-13.017l1.357 3.1c-7.025 3.076-14.626 7.867-14.745 10.1-.016.313.427.633.8.847 7.774 4.441 57.364-8.942 73.481-18.466l1.722 2.915c-7.6 4.49-23.878 10.422-40.51 14.762-8.103 2.111-20.737 5.002-29.238 5.002z" class="cls-2" data-name="Path 2147" transform="translate(-634.57 -2.81)"/>
                </g>
                <g id="Group_174" class="cls-7" data-name="Group 174" transform="translate(-59.25 -64.035)">
                    <path id="Path_2148-2" d="M837.777 110.555a9.027 9.027 0 1 1 9.028-9.027 9.038 9.038 0 0 1-9.028 9.027zm0-14.67a5.642 5.642 0 1 0 5.642 5.642 5.649 5.649 0 0 0-5.642-5.642z" class="cls-2" data-name="Path 2148" transform="translate(-693.37 5.32)"/>
                </g>
                <g id="Group_175" class="cls-6" data-name="Group 175" transform="translate(-59.251 -64.034)">
                    <path id="Path_2149-2" d="M792.53 140.512c-.564 3.177-4.147 7.707-28.617 10.438l-.672.248-.738-.547a74.307 74.307 0 0 1-12.892-12.181c1.264-.288 2.505-.581 3.707-.875a70.689 70.689 0 0 0 10.415 9.744c2.014-.982 7.464-4.09 13.146-11.154a58.9 58.9 0 0 0 4.976-7.284 189.26 189.26 0 0 0 4.88-1.89 64.409 64.409 0 0 1-7.4 11.516 50.741 50.741 0 0 1-8.125 8.046c15.9-2.488 17.807-5.642 17.981-6.652.271-1.523-2.6-3.645-4.2-4.44l1.506-3.03c.712.349 6.839 3.536 6.033 8.061z" class="cls-2" data-name="Path 2149" transform="translate(-658.88 -9.72)"/>
                </g>
            </g>
            <g id="Group_180" data-name="Group 180" transform="translate(30.006 5.594)">
                <g id="Group_178" data-name="Group 178" transform="translate(3.385)">
                    <g class="cls-5" transform="translate(-92.64 -69.63)">
                        <path id="Path_2150-2" d="M781.775 108.733v6.421c-.739.26-1.49.519-2.257.779v-3.859a1.7 1.7 0 0 0-3.385 0v4.988l-1.693.542v-5.975a1.417 1.417 0 1 0-2.821 0v6.861c-.948.3-1.326.587-2.257.869v-9.069a1.7 1.7 0 0 0-3.385 0v9.744c-.767.231-.954.451-1.693.671v-9.078a1.7 1.7 0 0 0-3.385 0v10.06c-.384.113-.762.22-1.128.322v-9.936c0-.858-1.118-1.557-1.975-1.557s-1.975.7-1.975 1.557v11.047c-1.123.316-2.076.576-2.821.779v-15.11s12.413-4.508 28.775-.056z" class="cls-2" data-name="Path 2150" transform="translate(-660.36 -.9)"/>
                    </g>
                    <g id="Group_177" data-name="Group 177" transform="translate(2.088)">
                        <path id="Union_1" d="M0 7.572A2.824 2.824 0 0 1 2.656 5.03V2.567h-.01a1.282 1.282 0 1 1 .233-.021V5.03a3.1 3.1 0 0 1 3.156 2.645A9.668 9.668 0 0 0 0 7.572z" class="cls-2" data-name="Union 1" transform="translate(9.31)"/>
                        <g class="cls-4" transform="translate(-94.73 -69.63)">
                            <path id="Path_2152-2" d="M772.667 61.167v-4.446a.093.093 0 0 0 .034.017l.039-.31a9.818 9.818 0 0 0-7.256.006l.023.3c.006 0 .389-.085.389-.192v4.751c-8.463 2.155-9.2 12.289-9.2 12.289s14.529-3.617 25.215 0c.004-.002-.216-10.559-9.244-12.415zm-4.514-.2h-1.693v-3.388h1.693zm1.128 0h-.564v-3.388h.564zm2.821 0h-1.692v-3.388h1.69z" class="cls-2" data-name="Path 2152" transform="translate(-661.97 21.34)"/>
                        </g>
                    </g>
                </g>
                <g class="cls-3" transform="translate(-89.26 -69.63)">
                    <path id="Path_2153-2" d="M779.16 96.279v-8.018c-7.34-2.026-16.83-1.416-22.568-.739-.609.068-1.174.141-1.693.214-.392.051-.771.112-1.128.173s-.6.065-1.693.253c-.367.062-.564.1-.564.1v8.017s-2.821.835-4.514 1.45v2.279a60.2 60.2 0 0 1 36.674.056v-2.448zm-25.39-1.151l-1.37.272v-6.46l1.372-.3zm2.246-.846H754.9V88.6l1.117-.271zm1.14 0v-5.948l1.094-.258.034 6.206zm3.385-.564h-1.128V87.9l1.128-.053zm2.257 0h-1.129v-5.66l1.129-.265zm2.257 0h-1.129v-5.872l1.154.035zm1.693 0h-1.128v-5.766l1.128-.441zm2.257 0h-1.128v-6.207l1.128.212zm2.257.564h-1.128v-6.771l1.128.212zm2.212.056l-1.388-.243.058-6.2 1.426.211zm1.039.212l-.077-6.387 1.233.406-.018 6.224zm3.762.849l-1.484-.31.06-6.449h1.474z" class="cls-2" data-name="Path 2153" transform="translate(-657.74 7.77)"/>
                </g>
            </g>
        </g>
    </g>
</svg>
