<svg xmlns="http://www.w3.org/2000/svg" width="48" height="48" viewBox="0 0 48 48">
    <defs>
        <style>
            .cls-1{fill:none}.cls-2{fill:#fff}
        </style>
    </defs>
    <g id="ambulance" transform="translate(-301.684 -380.684)">
        <path id="Rectangle_7" d="M0 0h48v48H0z" class="cls-1" data-name="Rectangle 7" transform="translate(301.684 380.684)"/>
        <g id="contract" transform="translate(305.988 387.493)">
            <path id="Path_354" d="M34.067 0H9.441a3.861 3.861 0 0 0-3.876 3.833l-.159 21.684H.6a.625.625 0 0 0-.6.642v2.984a5.229 5.229 0 0 0 4.934 5.2v.036h20.737v-.04c.154.006.248.04.354.04h.015a5.213 5.213 0 0 0 5.182-5.24V10.176h6.26a.632.632 0 0 0 .6-.649V4.052A4.045 4.045 0 0 0 34.067 0zM5.2 33.15a4 4 0 0 1-3.966-4.007v-2.392h19.58v2.382a5.22 5.22 0 0 0 1.524 3.7 2.215 2.215 0 0 1 .325.313zm24.785-4.007a3.982 3.982 0 0 1-3.95 4.007h-.013a4.007 4.007 0 0 1-3.978-4.017v-2.974a.639.639 0 0 0-.617-.642H6.64l.16-21.68a2.627 2.627 0 0 1 2.643-2.6h21.712a4.208 4.208 0 0 0-1.167 2.835zm6.861-25.08v4.88h-5.624V4.067a2.856 2.856 0 0 1 2.827-2.834h.017a2.811 2.811 0 0 1 2.783 2.825zm0 0" class="cls-2" data-name="Path 354" transform="translate(.001)"/>
            <path id="Path_355" d="M164.839 64.2l3.057 2.09a.584.584 0 0 0 .663 0l3.048-2.09a4.606 4.606 0 0 0 1.841-3.514v-4.229a.58.58 0 0 0-.316-.532l-4.655-2.29a.583.583 0 0 0-.518 0l-4.647 2.283a.579.579 0 0 0-.316.533v4.236a4.606 4.606 0 0 0 1.843 3.513zm-.656-7.379l4.04-1.993 4.04 2v3.86a3.417 3.417 0 0 1-1.324 2.533l-2.723 1.862-2.716-1.863a3.415 3.415 0 0 1-1.321-2.533zm0 0" class="cls-2" data-name="Path 355" transform="translate(-150.237 -49.603)"/>
            <path id="Path_356" d="M202.907 119.5a.592.592 0 0 0 .42.178.594.594 0 0 0 .419-.175l2.359-2.36a.593.593 0 0 0-.839-.839l-1.938 1.937-.775-.782a.593.593 0 1 0-.843.835zm0 0" class="cls-2" data-name="Path 356" transform="translate(-185.915 -107.136)"/>
            <path id="Path_357" d="M147.825 248h-14.232a.593.593 0 0 0 0 1.186h14.232a.593.593 0 1 0 0-1.186zm0 0" class="cls-2" data-name="Path 357" transform="translate(-122.46 -228.854)"/>
            <path id="Path_358" d="M147.825 285h-14.232a.593.593 0 0 0 0 1.186h14.232a.593.593 0 1 0 0-1.186zm0 0" class="cls-2" data-name="Path 358" transform="translate(-122.46 -262.997)"/>
        </g>
    </g>
</svg>
