<svg xmlns="http://www.w3.org/2000/svg" width="39" height="39" viewBox="0 0 39 39">
    <defs>
        <style>
            .cls-1{fill:none}.cls-2{fill:#fff}
        </style>
    </defs>
    <g id="Group_65" data-name="Group 65" transform="translate(-302.5 -383.5)">
        <path id="Rectangle_7" d="M0 0h39v39H0z" class="cls-1" data-name="Rectangle 7" transform="translate(302.5 383.5)"/>
        <path id="post" d="M12.741 0h-.209a1.564 1.564 0 0 0-1.572 1.537v1.48l-4.465-1.3a.488.488 0 0 0-.608.338L.077 22.078a.5.5 0 0 0 .341.615l20.024 5.814a.5.5 0 0 0 .615-.335l.62-2.133h5.018a.512.512 0 0 0 .508-.5V4.686a.485.485 0 0 0-.508-.47H15.028l-.721-.242V1.537A1.559 1.559 0 0 0 12.741 0zm-.789 1.537a.571.571 0 0 1 .58-.545h.209a.566.566 0 0 1 .575.545v2.149L11.952 3.3zm10.013 23.51l4.246-14.59v14.59zm4.246-19.839v2.225l-7.766-2.225zm-.42 3.136l-5.543 19.071-19.074-5.537L6.721 2.807l6.595 1.912V8.1a.558.558 0 0 1-1.116 0V6.042a.5.5 0 1 0-.992 0V8.1a1.55 1.55 0 0 0 3.1 0V5zm0 0" class="cls-2" transform="translate(307.261 388.318)"/>
    </g>
</svg>
