<svg xmlns="http://www.w3.org/2000/svg" width="31" height="31" viewBox="0 0 31 31">
    <defs>
        <style>
            .cls-1{fill:none}.cls-2{fill:#fff}
        </style>
    </defs>
    <g id="users" transform="translate(-301.725 -380.725)">
        <path id="Rectangle_7" d="M0 0h31v31H0z" class="cls-1" data-name="Rectangle 7" transform="translate(301.725 380.725)"/>
        <g id="tie" transform="translate(307.959 385.483)">
            <path id="Path_359" d="M14.417 13.742A7.58 7.58 0 0 0 16.1 10.9a1.8 1.8 0 0 0 .989-1.242c.133-.531.444-1.775-.24-2.158v-.886c.046-1.576-.137-3.489-1.946-4.272a2.93 2.93 0 0 1-.178-.777L14.568 0l-1.112 1.049a8.445 8.445 0 0 1-3.113.78l-.511.08C6.544 2.425 6.59 4.093 6.64 5.862c.006.23.012.473.012.732l.024.8c-.492.325-.606 1.1-.328 2.233a1.631 1.631 0 0 0 .974 1.175 8.623 8.623 0 0 0 1.758 2.937c-4.094 1.033-7.1 4.368-7.1 8.324v.365h19.541v-.365c.002-3.95-3.01-7.287-7.104-8.321zm-3.448 1.135l-.484.413.791.681-.576 2.268-2.9-3.3a9.888 9.888 0 0 1 1.982-.612 3.528 3.528 0 0 0 1.186.551zm2.749-.543a9.751 9.751 0 0 1 1.9.578l-2.9 3.394-.593-2.334.791-.681-.46-.4a3.59 3.59 0 0 0 1.262-.557zm-5.793-4.1c-.28.06-.717-.275-.845-.789S6.862 8.081 7.147 8a.346.346 0 0 1 .259.04V6.591c0-2.283-.515-3.622 3.048-4l-.031-.011s2.81-.283 3.549-.98a3.524 3.524 0 0 0 .321 1.234c1.643.66 1.85 2.183 1.8 3.76v1.448A.347.347 0 0 1 16.355 8c.284.078.133.957 0 1.478s-.495.81-.774.757a7.422 7.422 0 0 1-2.088 3.316 3.513 3.513 0 0 1-.443.308 2.761 2.761 0 0 1-.766.3 2.389 2.389 0 0 1-.533.065 2.443 2.443 0 0 1-.541-.065 2.773 2.773 0 0 1-.772-.3 3.727 3.727 0 0 1-.446-.308 7.237 7.237 0 0 1-2.067-3.315z" class="cls-2" data-name="Path 359" transform="translate(-1.976)"/>
        </g>
    </g>
</svg>
