<svg xmlns="http://www.w3.org/2000/svg" width="24.205" height="27" viewBox="0 0 24.205 27">
    <defs>
        <style>
            .cls-1{fill:#4c5264}
        </style>
    </defs>
    <path id="view" d="M9.914 25.945A1.055 1.055 0 0 1 8.859 27h-4.64A4.223 4.223 0 0 1 0 22.781V4.219A4.223 4.223 0 0 1 4.219 0h12.967A4.224 4.224 0 0 1 21.4 4.219v10.072a1.055 1.055 0 1 1-2.109 0V4.219a2.112 2.112 0 0 0-2.109-2.109H4.219a2.112 2.112 0 0 0-2.11 2.109v18.562a2.112 2.112 0 0 0 2.109 2.109h4.641a1.055 1.055 0 0 1 1.055 1.055zm6.217-19.617H5.268a1.055 1.055 0 0 0 0 2.109h10.863a1.055 1.055 0 0 0 0-2.109zm1.055 5.272a1.055 1.055 0 0 0-1.055-1.055H5.268a1.055 1.055 0 0 0 0 2.109h10.863a1.055 1.055 0 0 0 1.055-1.054zM5.268 14.766a1.055 1.055 0 0 0 0 2.109h5.543a1.055 1.055 0 0 0 0-2.109zm18.746 7.725a8.287 8.287 0 0 1-.243.332 14.842 14.842 0 0 1-2.331 2.4A7.233 7.233 0 0 1 16.928 27a7.233 7.233 0 0 1-4.512-1.774 14.837 14.837 0 0 1-2.33-2.4c-.079-.1-.206-.28-.243-.332a1.055 1.055 0 0 1 0-1.213c.037-.053.164-.233.243-.332a14.838 14.838 0 0 1 2.33-2.4 7.233 7.233 0 0 1 4.512-1.774 7.233 7.233 0 0 1 4.512 1.774 14.837 14.837 0 0 1 2.33 2.4c.079.1.206.28.243.332a1.054 1.054 0 0 1 0 1.21zm-2.2-.606c-1.677-2-3.319-3.006-4.886-3.006s-3.209 1.011-4.886 3.006c1.677 2 3.319 3.006 4.886 3.006s3.208-1.011 4.885-3.006zm-4.833-2a2 2 0 1 0 2 2 2 2 0 0 0-2-2.004zm0 0" class="cls-1"/>
</svg>
